{"title":"Toolroom Knights CD2(2009)-Mixed by Joachim Garraud","uid":5305283,"size":585806218,"categoryP":"audio","categoryS":"flac","magnet":"?xt=urn:btih:ce87af8f32cac76382c354da194abcb3a5f294d8&amp;dn=Toolroom+Knights+CD2%282009%29-Mixed+by+Joachim+Garraud&amp;tr=udp%3A%2F%2Ftracker.openbittorrent.com%3A80&amp;tr=udp%3A%2F%2Fopen.demonii.com%3A1337&amp;tr=udp%3A%2F%2Ftracker.coppersurfer.tk%3A6969&amp;tr=udp%3A%2F%2Fexodus.desync.com%3A6969","seeders":0,"leechers":1,"uploader":"CTACyan","files":-1,"time":1264366304,"description":"Exact Audio Copy V0.99 prebeta 5 from 4. May 2009\n\nEAC extraction logfile from 28. August 2009, 16:30\n\nJoachim Garraud / Toolroom Knights CD2\n\nUsed drive  : Optiarc DVD RW AD-7201S   Adapter: 3  ID: 0\n\nRead mode               : Secure\nUtilize accurate stream : Yes\nDefeat audio cache      : Yes\nMake use of C2 pointers : No\n\nRead offset correction                      : 48\nOverread into Lead-In and Lead-Out          : No\nFill up missing offset samples with silence : Yes\nDelete leading and trailing silent blocks   : No\nNull samples used in CRC calculations       : Yes\nUsed interface                              : Installed external ASPI interface\n\nUsed output format              : User Defined Encoder\nSelected bitrate                : 128 kBit/s\nQuality                         : High\nAdd ID3 tag                     : No\nCommand line compressor         : C:Program FilesExact Audio CopyFlacflac.exe\nAdditional command line options : -8 -V -T &quot;ARTIST=%a&quot; -T &quot;TITLE=%t&quot; -T &quot;ALBUM=%g&quot; -T &quot;DATE=%y&quot; -T &quot;TRACKNUMBER=%n&quot; -T &quot;GENRE=%m&quot; -T &quot;COMMENT=EAC FLAC -8&quot; %s\n\n\nTOC of the extracted CD\n\n     Track |   Start  |  Length  | Start sector | End sector \n    ---------------------------------------------------------\n        1  |  0:00.00 |  4:43.59 |         0    |    21283   \n        2  |  4:43.59 |  3:27.59 |     21284    |    36867   \n        3  |  8:11.43 |  3:35.14 |     36868    |    53006   \n        4  | 11:46.57 |  3:46.21 |     53007    |    69977   \n        5  | 15:33.03 |  5:11.23 |     69978    |    93325   \n        6  | 20:44.26 |  5:39.26 |     93326    |   118776   \n        7  | 26:23.52 |  3:33.44 |    118777    |   134795   \n        8  | 29:57.21 |  5:51.13 |    134796    |   161133   \n        9  | 35:48.34 |  4:06.74 |    161134    |   179657   \n       10  | 39:55.33 |  4:28.62 |    179658    |   199819   \n       11  | 44:24.20 |  6:09.64 |    199820    |   227558   \n       12  | 50:34.09 |  5:07.30 |    227559    |   250613   \n       13  | 55:41.39 |  6:16.05 |    250614    |   278818   \n       14  | 61:57.44 |  6:00.08 |    278819    |   305826   \n       15  | 67:57.52 |  6:38.08 |    305827    |   335684   \n\n\nRange status and errors\n\nSelected range\n\n     Filename E:Joachim Garraud - Toolroom Knights CD2.wav\n\n     Peak level 98.9 %\n     Range quality 100.0 %\n     Test CRC BBC442D3\n     Copy CRC BBC442D3\n     Copy OK\n\nNo errors occurred\n\nEnd of status report\n","torrent":{"xt":"urn:btih:ce87af8f32cac76382c354da194abcb3a5f294d8","amp;dn":"Toolroom+Knights+CD2%282009%29-Mixed+by+Joachim+Garraud","amp;tr":["udp%3A%2F%2Ftracker.openbittorrent.com%3A80","udp%3A%2F%2Fopen.demonii.com%3A1337","udp%3A%2F%2Ftracker.coppersurfer.tk%3A6969","udp%3A%2F%2Fexodus.desync.com%3A6969"],"infoHash":"ce87af8f32cac76382c354da194abcb3a5f294d8","infoHashBuffer":{"type":"Buffer","data":[206,135,175,143,50,202,199,99,130,195,84,218,25,74,188,179,165,242,148,216]},"announce":[],"urlList":[]}}